<svg xmlns="http://www.w3.org/2000/svg" xmlns:xlink="http://www.w3.org/1999/xlink" width="500" zoomAndPan="magnify" viewBox="0 0 375 374.999991" height="500" preserveAspectRatio="xMidYMid meet" version="1.0"><defs><clipPath id="2b75ea63df"><path d="M 188 34.335938 L 354.285156 34.335938 L 354.285156 302 L 188 302 Z M 188 34.335938 " clip-rule="nonzero"/></clipPath><clipPath id="9f4d7de4f5"><path d="M 20.109375 34.335938 L 240 34.335938 L 240 340.664062 L 20.109375 340.664062 Z M 20.109375 34.335938 " clip-rule="nonzero"/></clipPath><clipPath id="e34b5a730b"><path d="M 88.5 141.402344 L 228.078125 141.402344 L 228.078125 158.214844 L 88.5 158.214844 Z M 88.5 141.402344 " clip-rule="nonzero"/></clipPath><clipPath id="2d343e31b2"><path d="M 96.910156 141.402344 L 219.632812 141.402344 C 224.277344 141.402344 228.039062 145.164062 228.039062 149.808594 C 228.039062 154.449219 224.277344 158.214844 219.632812 158.214844 L 96.910156 158.214844 C 92.265625 158.214844 88.5 154.449219 88.5 149.808594 C 88.5 145.164062 92.265625 141.402344 96.910156 141.402344 Z M 96.910156 141.402344 " clip-rule="nonzero"/></clipPath><clipPath id="6211c4bc4e"><path d="M 88.5 210.675781 L 248.605469 210.675781 L 248.605469 228.417969 L 88.5 228.417969 Z M 88.5 210.675781 " clip-rule="nonzero"/></clipPath><clipPath id="41472d1865"><path d="M 97.371094 210.675781 L 239.6875 210.675781 C 244.585938 210.675781 248.558594 214.648438 248.558594 219.546875 C 248.558594 224.445312 244.585938 228.417969 239.6875 228.417969 L 97.371094 228.417969 C 92.472656 228.417969 88.5 224.445312 88.5 219.546875 C 88.5 214.648438 92.472656 210.675781 97.371094 210.675781 Z M 97.371094 210.675781 " clip-rule="nonzero"/></clipPath></defs><path fill="#fca311" d="M 97.152344 177.261719 L 191.578125 177.261719 C 196.011719 177.261719 199.660156 180.910156 199.660156 185.34375 C 199.660156 189.777344 196.011719 193.425781 191.578125 193.425781 L 97.152344 193.425781 C 92.71875 193.425781 89.070312 189.777344 89.070312 185.34375 C 89.070312 180.835938 92.714844 177.261719 97.152344 177.261719 " fill-opacity="1" fill-rule="evenodd"/><path fill="#fca311" d="M 97.152344 211.953125 L 237.644531 211.953125 C 242.082031 211.953125 245.726562 215.601562 245.726562 220.039062 C 245.726562 224.472656 242.082031 228.121094 237.644531 228.121094 L 97.152344 228.121094 C 92.714844 228.121094 89.070312 224.472656 89.070312 220.039062 C 89.070312 215.601562 92.714844 211.953125 97.152344 211.953125 " fill-opacity="1" fill-rule="evenodd"/><path fill="#fca311" d="M 97.152344 142.566406 L 220.476562 142.566406 C 224.910156 142.566406 228.558594 146.214844 228.558594 150.648438 C 228.558594 155.085938 224.910156 158.734375 220.476562 158.734375 L 97.152344 158.734375 C 92.714844 158.734375 89.070312 155.085938 89.070312 150.648438 C 89.070312 146.144531 92.714844 142.566406 97.152344 142.566406 " fill-opacity="1" fill-rule="evenodd"/><g clip-path="url(#2b75ea63df)"><path fill="#14213d" d="M 243.511719 269.824219 L 281.851562 269.824219 C 293.011719 269.824219 303.671875 265.320312 311.539062 257.449219 C 314.113281 254.875 316.332031 252.011719 318.191406 248.867188 L 318.480469 248.4375 L 318.691406 248.007812 C 319.121094 247.292969 319.480469 246.503906 319.835938 245.71875 C 320.195312 244.929688 320.554688 244.144531 320.839844 243.359375 L 321.195312 242.425781 L 321.484375 241.425781 L 321.625 240.925781 L 321.914062 239.925781 L 322.054688 239.421875 L 322.199219 238.921875 L 322.339844 238.421875 L 322.554688 237.421875 L 322.699219 236.917969 L 322.84375 236.417969 L 322.914062 235.917969 L 323.128906 234.917969 L 323.199219 234.414062 L 323.269531 233.914062 L 323.414062 232.914062 L 323.484375 232.414062 L 323.558594 231.914062 L 323.628906 231.410156 L 323.699219 230.910156 L 323.773438 230.410156 L 323.773438 105.65625 L 323.699219 105.152344 L 323.558594 104.152344 L 323.484375 103.652344 L 323.414062 103.152344 L 323.269531 102.148438 L 323.128906 101.148438 L 322.914062 100.144531 L 322.84375 99.644531 L 322.699219 99.144531 L 322.769531 98.429688 L 322.554688 97.429688 L 322.414062 96.925781 L 322.125 95.925781 L 321.839844 94.925781 L 321.699219 94.421875 L 321.554688 93.921875 L 321.269531 93.492188 L 320.910156 92.5625 C 320.554688 91.777344 320.195312 90.988281 319.835938 90.203125 C 319.480469 89.417969 319.050781 88.699219 318.691406 87.914062 L 318.121094 87.054688 C 316.261719 83.980469 314.042969 81.046875 311.46875 78.472656 C 303.597656 70.601562 292.941406 66.097656 281.78125 66.097656 L 195.367188 66.097656 L 188 34.765625 L 282.425781 34.765625 C 283.714844 34.765625 285 34.835938 286.359375 34.90625 L 287.359375 34.90625 C 288.21875 34.980469 289.148438 35.050781 290.007812 35.121094 L 290.078125 35.121094 L 290.582031 35.191406 L 291.007812 35.265625 C 291.9375 35.40625 292.796875 35.480469 293.65625 35.621094 L 294.085938 35.695312 L 294.515625 35.765625 C 295.371094 35.910156 296.304688 36.125 297.160156 36.265625 L 297.589844 36.335938 L 298.019531 36.410156 C 298.878906 36.625 299.738281 36.839844 300.59375 37.054688 L 300.953125 37.125 L 301.453125 37.269531 L 301.8125 37.339844 L 302.3125 37.480469 C 303.457031 37.839844 304.601562 38.199219 305.746094 38.554688 L 306.03125 38.699219 L 306.53125 38.914062 L 306.820312 39.054688 L 307.320312 39.269531 L 308.175781 39.628906 L 308.464844 39.699219 L 309.035156 39.914062 L 309.894531 40.273438 L 310.179688 40.414062 L 310.753906 40.628906 L 311.039062 40.773438 L 311.613281 40.988281 C 312.398438 41.34375 313.257812 41.703125 314.042969 42.132812 L 314.257812 42.203125 L 314.832031 42.488281 L 315.617188 42.917969 L 315.832031 42.992188 L 316.402344 43.277344 L 316.617188 43.347656 L 317.191406 43.707031 L 317.335938 43.777344 L 317.90625 44.136719 L 318.621094 44.5625 L 318.691406 44.636719 L 318.835938 44.707031 L 319.410156 45.066406 L 319.550781 45.136719 L 320.195312 45.496094 L 320.339844 45.566406 L 320.980469 45.921875 L 322.484375 46.925781 L 322.628906 46.996094 L 323.269531 47.425781 L 323.988281 47.925781 L 324.058594 47.996094 L 324.703125 48.425781 L 324.773438 48.5 L 325.417969 49 L 325.488281 49.070312 L 326.132812 49.570312 L 326.277344 49.785156 L 326.917969 50.285156 L 326.992188 50.359375 L 327.636719 50.859375 L 327.707031 50.929688 L 328.351562 51.429688 L 328.421875 51.503906 L 329.066406 52.003906 L 329.136719 52.074219 L 329.78125 52.648438 L 329.851562 52.648438 L 331.140625 53.792969 L 331.785156 54.363281 L 332.425781 55.007812 L 334.359375 56.941406 L 335.003906 57.582031 L 335.648438 58.226562 L 336.289062 58.871094 L 336.863281 59.515625 L 337.433594 60.230469 L 338.007812 60.945312 L 339.152344 62.304688 L 339.722656 63.019531 L 340.296875 63.734375 C 340.867188 64.449219 341.371094 65.167969 341.871094 65.882812 L 343.371094 68.027344 L 343.875 68.8125 L 344.375 69.601562 C 344.804688 70.53125 345.230469 71.246094 345.660156 72.035156 L 346.519531 73.605469 L 346.949219 74.394531 L 347.378906 75.179688 L 348.164062 76.753906 L 348.523438 77.542969 L 348.878906 78.328125 L 349.238281 79.117188 L 349.597656 79.902344 L 349.953125 80.761719 L 350.3125 81.617188 C 350.742188 82.761719 351.167969 83.835938 351.527344 84.980469 L 351.8125 85.839844 L 352.101562 86.699219 L 352.386719 87.554688 C 352.601562 88.414062 352.886719 89.273438 353.101562 90.132812 L 353.316406 90.988281 L 353.386719 91.992188 L 353.601562 92.851562 L 353.816406 93.707031 L 353.960938 94.566406 L 354.101562 95.425781 L 354.246094 96.285156 L 354.390625 97.140625 L 354.53125 98 L 354.675781 98.859375 L 354.890625 100.648438 L 355.03125 102.507812 L 355.175781 104.296875 L 355.246094 105.226562 L 355.246094 230.410156 L 355.175781 231.339844 L 355.03125 233.128906 L 354.890625 234.988281 L 354.675781 236.777344 L 354.53125 237.636719 L 354.390625 238.492188 L 354.101562 240.210938 L 353.960938 241.070312 L 353.816406 241.925781 L 353.171875 244.503906 L 352.957031 245.359375 C 352.742188 246.21875 352.527344 247.078125 352.242188 247.9375 L 351.957031 248.792969 L 351.671875 249.652344 L 351.382812 250.511719 C 351.027344 251.65625 350.597656 252.730469 350.167969 253.875 L 349.8125 254.730469 L 349.453125 255.589844 L 349.09375 256.375 L 348.738281 257.164062 L 348.378906 257.949219 L 348.023438 258.738281 L 347.234375 260.3125 L 346.804688 261.097656 L 346.375 261.886719 L 345.949219 262.671875 L 345.519531 263.457031 C 345.089844 264.246094 344.589844 265.03125 344.160156 265.746094 L 343.660156 266.535156 L 343.15625 267.25 L 341.65625 269.394531 C 341.15625 270.113281 340.582031 270.828125 340.082031 271.542969 L 339.507812 272.257812 L 338.9375 272.972656 C 338.578125 273.472656 338.152344 273.902344 337.792969 274.332031 L 337.21875 274.976562 L 336.648438 275.621094 L 336.074219 276.261719 L 335.433594 276.90625 L 333.5 278.839844 L 332.855469 279.480469 L 332.214844 280.125 L 331.570312 280.769531 L 330.925781 281.34375 L 329.636719 282.488281 L 329.566406 282.488281 L 328.921875 283.058594 L 328.851562 283.128906 L 328.207031 283.632812 L 328.136719 283.703125 L 327.492188 284.203125 L 327.421875 284.273438 L 326.777344 284.777344 L 326.703125 284.847656 L 326.0625 285.347656 L 325.988281 285.417969 L 325.347656 285.921875 L 325.273438 285.992188 L 324.628906 286.492188 L 324.558594 286.5625 L 323.914062 286.992188 L 323.84375 287.066406 L 323.128906 287.566406 L 322.484375 287.996094 L 322.339844 288.066406 L 320.839844 289.066406 L 320.195312 289.425781 L 320.050781 289.496094 L 319.410156 289.855469 L 319.265625 289.925781 L 318.691406 290.285156 L 318.550781 290.355469 L 318.480469 290.425781 L 317.761719 290.855469 L 317.191406 291.214844 L 317.046875 291.285156 L 316.476562 291.644531 L 316.261719 291.714844 L 315.6875 292 L 315.472656 292.070312 L 314.6875 292.5 L 314.113281 292.789062 L 313.902344 292.859375 C 313.113281 293.289062 312.253906 293.644531 311.46875 294.003906 L 310.894531 294.21875 L 310.609375 294.363281 L 310.039062 294.574219 L 309.75 294.71875 L 309.109375 295.863281 L 308.535156 296.078125 L 308.25 296.222656 L 307.390625 296.507812 L 306.890625 296.722656 L 306.605469 296.863281 L 306.101562 297.078125 L 305.816406 297.152344 C 304.671875 297.507812 303.527344 297.9375 302.382812 298.222656 L 301.882812 298.367188 L 301.523438 298.4375 L 301.023438 298.582031 L 300.667969 298.652344 C 299.808594 298.867188 298.949219 299.082031 298.089844 299.296875 L 297.519531 299.441406 L 297.089844 299.511719 C 296.230469 299.726562 295.300781 299.871094 294.441406 300.011719 L 294.015625 300.085938 L 293.585938 300.15625 C 292.726562 300.296875 291.796875 300.441406 290.9375 300.511719 L 290.507812 300.585938 L 290.007812 300.65625 L 289.9375 300.65625 C 289.078125 300.726562 288.148438 300.800781 287.289062 300.871094 L 286.289062 300.871094 C 285 300.941406 283.714844 301.015625 282.355469 301.015625 L 250.808594 301.015625 Z M 243.511719 269.824219 " fill-opacity="1" fill-rule="evenodd"/></g><g clip-path="url(#9f4d7de4f5)"><path fill="#fca311" d="M 224.910156 278.265625 L 230.347656 301.085938 L 239.648438 340.429688 L 178.199219 301.085938 L 93.503906 301.085938 C 73.976562 301.085938 55.449219 293.359375 41.640625 279.554688 C 27.835938 265.820312 20.109375 247.292969 20.109375 227.761719 L 20.109375 108.15625 C 20.109375 88.628906 27.835938 70.101562 41.640625 56.296875 C 55.449219 42.488281 73.976562 34.765625 93.503906 34.765625 L 167.398438 34.765625 L 174.765625 66.097656 L 93.503906 66.097656 C 82.34375 66.097656 71.6875 70.53125 63.816406 78.472656 C 55.875 86.339844 51.441406 97 51.441406 108.15625 L 51.441406 227.761719 C 51.441406 238.921875 55.949219 249.582031 63.816406 257.449219 C 71.6875 265.320312 82.34375 269.824219 93.503906 269.824219 L 222.910156 269.824219 Z M 224.910156 278.265625 " fill-opacity="1" fill-rule="evenodd"/></g><path fill="#fca311" d="M 97.152344 107.800781 L 278.203125 107.800781 C 282.640625 107.800781 286.289062 111.449219 286.289062 115.882812 C 286.289062 120.320312 282.640625 123.96875 278.203125 123.96875 L 97.152344 123.96875 C 92.714844 123.96875 89.070312 120.320312 89.070312 115.882812 C 89.070312 111.449219 92.714844 107.800781 97.152344 107.800781 " fill-opacity="1" fill-rule="evenodd"/><g clip-path="url(#e34b5a730b)"><g clip-path="url(#2d343e31b2)"><path fill="#14213d" d="M 88.5 141.402344 L 228.011719 141.402344 L 228.011719 158.214844 L 88.5 158.214844 Z M 88.5 141.402344 " fill-opacity="1" fill-rule="nonzero"/></g></g><g clip-path="url(#6211c4bc4e)"><g clip-path="url(#41472d1865)"><path fill="#14213d" d="M 88.5 210.675781 L 248.535156 210.675781 L 248.535156 228.417969 L 88.5 228.417969 Z M 88.5 210.675781 " fill-opacity="1" fill-rule="nonzero"/></g></g></svg>