<?xml version="1.0" encoding="UTF-8"?>
<svg id="Layer_2" data-name="Layer 2" xmlns="http://www.w3.org/2000/svg" viewBox="0 0 445.57 407.56">
  <defs>
    <style>
      .cls-1 {
        fill: #14213d;
        opacity: 0;
      }

      .cls-2 {
        fill: #fca311;
        fill-rule: evenodd;
      }
    </style>
  </defs>
  <g id="Layer_1-2" data-name="Layer 1">
    <g>
      <g>
        <path class="cls-2" d="M292.72,407.56l-80.02-51.24-1.91-1.22h-112.93c-26.03,0-50.74-10.3-69.15-28.71C10.3,308.08,0,283.37,0,257.33V97.97c0-1.67.04-3.33.12-4.98C2.72,42.37,44.58,2.14,95.83,2.14h101.06l9.32,39.64h-108.35c-14.88,0-29.09,5.91-39.58,16.5-10.59,10.49-16.5,24.7-16.5,39.58v159.47c0,14.88,6.01,29.1,16.5,39.59,10.49,10.49,24.7,16.5,39.58,16.5h172.54l2.67,11.25,7.25,30.43.29,1.22,12.11,51.24Z"/>
        <path class="cls-2" d="M.58,87.35c.07-.64.14-1.27.23-1.9-.08.63-.16,1.27-.23,1.9Z"/>
        <path class="cls-2" d="M.39,89.23c.06-.63.12-1.26.19-1.89-.07.63-.13,1.26-.19,1.89Z"/>
        <path class="cls-2" d="M196.89,2.14h-101.06C47.16,2.14,6.96,38.43.81,85.44c2.73-21.39,12.45-41.28,27.9-56.73C47.12,10.3,71.83,0,97.86,0h98.53l.5,2.14Z"/>
        <path class="cls-2" d="M.12,92.99c.06-1.26.16-2.51.27-3.76-.11,1.25-.21,2.5-.27,3.76Z"/>
      </g>
      <rect class="cls-1" width="445.57" height="407.56"/>
    </g>
  </g>
</svg>