<?xml version="1.0" encoding="UTF-8"?>
<svg id="Layer_2" data-name="Layer 2" xmlns="http://www.w3.org/2000/svg" viewBox="0 0 445.57 407.56">
  <defs>
    <style>
      .cls-1 {
        fill-rule: evenodd;
      }

      .cls-1, .cls-2 {
        fill: #14213d;
      }

      .cls-2 {
        opacity: 0;
      }
    </style>
  </defs>
  <g id="Layer_1-2" data-name="Layer 1">
    <g>
      <path class="cls-1" d="M445.57,95.78v163.9c0,53.37-42.9,96.64-95.83,96.64h-42.53l-9.34-43.24h51.12c14.88,0,29.1-6.06,39.59-16.64,3.43-3.47,6.39-7.31,8.87-11.55l.38-.57.28-.57c.57-.97,1.05-2.03,1.53-3.08.48-1.07.96-2.12,1.34-3.18l.47-1.26.39-1.34.18-.68.39-1.34.19-.68.19-.68.19-.67.28-1.35.2-.68.19-.68.09-.67.29-1.35.09-.68.1-.67.19-1.35.09-.67.1-.68.1-.68.09-.68.1-.68V95.33l-.1-.69-.19-1.34-.1-.68-.09-.67-.19-1.35-.19-1.35-.29-1.34-.09-.68-.19-.68.09-.96-.29-1.34-.18-.69-.39-1.34-.38-1.34-.19-.68-.19-.68-.38-.57-.48-1.25c-.47-1.06-.95-2.12-1.43-3.18-.48-1.06-1.05-2.02-1.53-3.08l-.76-1.16c-2.48-4.13-5.44-8.08-8.87-11.54-10.49-10.58-24.7-16.64-39.58-16.64h-115.22L223.86,0h125.9c1.72,0,3.43.1,5.24.19h1.34c1.14.1,2.38.19,3.53.29h.09l.67.09.57.1c1.24.19,2.39.29,3.53.47l.57.1.58.1c1.14.19,2.38.48,3.52.67l.58.1.57.1c1.15.28,2.29.57,3.43.87l.48.09.67.19.48.1.66.18c1.53.48,3.06.97,4.58,1.45l.38.19.67.29.38.18.67.29,1.14.48.39.09.76.29,1.14.48.38.19.77.28.38.19.76.29c1.05.48,2.2.96,3.24,1.54l.29.09.77.38,1.04.57.29.1.76.38.29.1.76.48.19.09.77.48.95.57.09.1.19.09.77.48.19.09.86.48.19.1.85.47,2.01,1.35.19.09.86.57.95.68.1.09.86.58.09.1.86.67.09.1.86.67.2.29.85.68.1.1.86.67.09.1.86.67.1.1.86.68.09.09.86.78h.09l1.72,1.53.86.77.85.87,2.58,2.6.86.87.86.87.86.86.76.87.76.97.77.96,1.52,1.83.76.97.77.96c.76.96,1.43,1.93,2.1,2.88l2,2.88,1.34,2.12c.57,1.25,1.14,2.21,1.71,3.28l1.15,2.11.57,1.06.39.74c6.02,12.64,9.39,26.8,9.39,41.75Z"/>
      <rect class="cls-2" width="445.57" height="407.56"/>
    </g>
  </g>
</svg>